#!OML:ASF X:\für Bonn\!DataBase\2005_08_11_Bastian_Final\c3d\Bastian.ASF
:FULLY-SPECIFIED
:DEGREES
109
root -11.6785 17.9885 -13.8015 164.576 116.997 -559.435
lowerback 7.72595 2.89203 7.3057
upperback 5.34617 4.42126 2.53839
thorax 1.58779 2.43262 -1.70632
lowerneck -14.4626 -2.77011 -6.9658
upperneck 0.168919 -2.58447 3.7373
head 2.78715 -1.13201 2.31568
rclavicle -5.50634e-014 1.11319e-014
rhumerus -40.3316 27.9558 -92.6903
rradius 111.955
rwrist 9.44372
rhand -18.1167 22.4667
rfingers 7.12502
rthumb 8.15767 -7.35587
lclavicle -5.50634e-014 1.11319e-014
lhumerus -58.2462 -24.8126 94.2722
lradius 72.5925
lwrist 27.4501
lhand -9.96256 -11.6848
lfingers 7.12502
lthumb 16.0197 17.6729
rfemur 12.9162 -7.67345 27.8887
rtibia 35.1304
rfoot 8.04412 8.38901
rtoes -34.0397
lfemur -32.3169 3.44061 -23.9177
ltibia 33.9961
lfoot -17.1202 -12.7244
ltoes -29.6271
110
root -11.4226 17.9562 -13.6163 164.088 116.721 -559.818
lowerback 7.38887 2.90325 7.19976
upperback 5.35151 4.39557 2.43358
thorax 1.77701 2.42326 -1.73268
lowerneck -14.4374 -2.7705 -6.87053
upperneck 0.236309 -2.60627 3.75895
head 2.80536 -1.1431 2.30415
rclavicle -4.32108e-014 1.19271e-015
rhumerus -41.1595 27.8922 -93.2851
rradius 111.046
rwrist 9.1908
rhand -17.8759 22.4761
rfingers 7.12502
rthumb 8.39011 -7.33724
lclavicle -4.32108e-014 1.19271e-015
lhumerus -58.1502 -24.3319 94.2159
lradius 72.7211
lwrist 27.5585
lhand -9.73918 -11.8339
lfingers 7.12502
lthumb 16.2348 17.5064
rfemur 12.3058 -7.67772 27.7943
rtibia 37.7854
rfoot 9.43935 8.41736
rtoes -33.2451
lfemur -31.2703 3.74269 -24.3448
ltibia 32.2893
lfoot -18.5673 -12.2183
ltoes -32.3606
111
root -11.1728 17.9096 -13.4333 163.681 116.425 -560.11
lowerback 7.13892 2.91422 7.02892
upperback 5.33572 4.37606 2.31096
thorax 1.89249 2.41248 -1.74899
lowerneck -14.462 -2.76783 -6.72403
upperneck 0.349771 -2.62937 3.76316
head 2.84721 -1.15539 2.27733
rclavicle -6.04057e-014 2.80783e-014
rhumerus -41.9537 27.6815 -93.8329
rradius 109.958
rwrist 8.8747
rhand -17.564 22.5701
rfingers 7.12502
rthumb 8.6911 -7.23103
lclavicle -6.04057e-014 2.80783e-014
lhumerus -58.0795 -23.9008 94.1916
lradius 72.9376
lwrist 27.5751
lhand -9.5491 -11.8776
lfingers 7.12502
lthumb 16.4178 17.4477
rfemur 11.5792 -7.75016 27.6286
rtibia 40.6352
rfoot 10.6689 8.56096
rtoes -33.2192
lfemur -30.3077 3.95533 -24.7901
ltibia 31.0213
lfoot -19.9126 -11.3941
ltoes -33.9775
112
root -10.9279 17.8522 -13.2531 163.243 116.145 -560.393
lowerback 6.97536 2.90928 6.83799
upperback 5.33448 4.34368 2.21135
thorax 1.97087 2.39401 -1.73517
lowerneck -14.4219 -2.74738 -6.61289
upperneck 0.376082 -2.6242 3.75045
head 2.84544 -1.15359 2.25276
rclavicle -1.05486e-013 -4.18193e-014
rhumerus -42.7149 27.3791 -94.3189
rradius 108.703
rwrist 8.63723
rhand -17.2797 22.8349
rfingers 7.12502
rthumb 8.96545 -6.95465
lclavicle -1.05486e-013 -4.18193e-014
lhumerus -58.0722 -23.4776 94.2178
lradius 73.2905
lwrist 27.5337
lhand -9.39798 -11.8325
lfingers 7.12502
lthumb 16.5633 17.4806
rfemur 10.7757 -7.92346 27.3937
rtibia 43.6505
rfoot 11.5428 8.82958
rtoes -34.0846
lfemur -29.3542 3.97749 -25.156
ltibia 30.1423
lfoot -20.9631 -10.348
ltoes -34.4815
113
root -10.6833 17.7852 -13.0747 162.921 115.825 -560.54
lowerback 6.85825 2.90046 6.60788
upperback 5.30671 4.30941 2.06217
thorax 1.99644 2.37172 -1.75509
lowerneck -14.3476 -2.73369 -6.44853
upperneck 0.399695 -2.64104 3.76436
head 2.83699 -1.16182 2.22576
rclavicle -1.48343e-014 -1.6201e-014
rhumerus -43.4759 26.8974 -94.8111
rradius 107.278
rwrist 8.54022
rhand -16.9938 23.1197
rfingers 7.12502
rthumb 9.24135 -6.65775
lclavicle -1.48343e-014 -1.6201e-014
lhumerus -58.2736 -23.2204 94.3084
lradius 73.8587
lwrist 27.4469
lhand -9.44785 -11.7566
lfingers 7.12502
lthumb 16.5153 17.5605
rfemur 9.89512 -8.26453 26.9581
rtibia 46.8003
rfoot 12.0218 9.05612
rtoes -35.1045
lfemur -28.4185 3.81287 -25.5417
ltibia 29.6056
lfoot -21.6613 -9.33023
ltoes -34.2535
114
root -10.4395 17.7095 -12.8953 162.566 115.502 -560.691
lowerback 6.73862 2.87797 6.33505
upperback 5.32579 4.25484 1.94087
thorax 2.06524 2.34039 -1.7198
lowerneck -14.2631 -2.71604 -6.29169
upperneck 0.324741 -2.64545 3.72353
head 2.79045 -1.16433 2.18176
rclavicle 1.69464e-014 2.22639e-014
rhumerus -44.12 26.319 -95.1726
rradius 105.711
rwrist 8.59427
rhand -16.6621 23.4719
rfingers 7.12502
rthumb 9.56133 -6.29114
lclavicle 1.69464e-014 2.22639e-014
lhumerus -58.454 -22.9728 94.4277
lradius 74.4569
lwrist 27.2735
lhand -9.55768 -11.7544
lfingers 7.12502
lthumb 16.4096 17.5716
rfemur 8.93448 -8.66772 26.4801
rtibia 50.0576
rfoot 12.3353 9.06659
rtoes -35.8427
lfemur -27.491 3.49202 -25.8394
ltibia 29.362
lfoot -21.8659 -8.68179
ltoes -33.228
